<svg width="48" height="48" viewBox="0 0 48 48" fill="none" xmlns="http://www.w3.org/2000/svg">
<g clip-path="url(#clip0_5_12)">
<path d="M23.76 18.28C26.32 18.4 26.98 20.58 27.02 21.6H30.6C30.44 17.64 27.62 15.22 23.7 15.22C19.28 15.22 16 18 16 24.28C16 28.16 17.86 32.76 23.68 32.76C28.12 32.76 30.5 29.46 30.56 26.86H26.98C26.92 28.04 26.08 29.62 23.72 29.74C21.1 29.66 20 27.62 20 24.28C20 18.5 22.56 18.32 23.76 18.28ZM24 4C12.96 4 4 12.96 4 24C4 35.04 12.96 44 24 44C35.04 44 44 35.04 44 24C44 12.96 35.04 4 24 4ZM24 40C15.18 40 8 32.82 8 24C8 15.18 15.18 8 24 8C32.82 8 40 15.18 40 24C40 32.82 32.82 40 24 40Z" fill="white"/>
</g>
<defs>
<clipPath id="clip0_5_12">
<rect width="48" height="48" fill="white"/>
</clipPath>
</defs>
</svg>
